# This file uses centimeters as units for non-parametric coordinates.

mtllib cuadro.mtl
g default
v -11.196901 12.648859 -13.962173
v -7.918460 12.648859 -13.962173
v -11.196901 9.370419 -13.962173
v -7.918460 9.370419 -13.962173
v -10.784481 9.782839 -13.543476
v -11.196901 9.370419 -13.549671
v -8.330879 9.782839 -13.543476
v -7.918460 9.370419 -13.549671
v -10.784481 12.236440 -13.543476
v -11.196901 12.648859 -13.549671
v -8.330879 12.236440 -13.543476
v -7.918460 12.648859 -13.549671
v -8.330879 9.782839 -13.758763
v -10.784481 9.782839 -13.758763
v -8.330879 12.236440 -13.758763
v -10.784481 12.236440 -13.758763
vt 0.625000 0.500000
vt 0.375000 0.750000
vt 0.250012 0.000000
vt 0.406449 0.031449
vt 0.375000 0.374987
vt 0.406449 0.218551
vt 0.749987 0.250000
vt 0.593551 0.031449
vt 0.593551 0.218551
vt 0.625000 0.374987
vt 0.375000 0.500000
vt 0.625000 0.750000
vt 0.625000 0.875012
vt 0.375000 0.875013
vt 0.749987 0.000000
vt 0.875000 0.000000
vt 0.875000 0.250000
vt 0.125000 0.000000
vt 0.250012 0.250000
vt 0.125000 0.250000
vt 0.406449 0.031449
vt 0.593551 0.031449
vt 0.593551 0.218551
vt 0.406449 0.218551
vn 0.000000 0.000000 -1.000000
vn 0.000000 0.000000 -1.000000
vn 0.000000 0.000000 -1.000000
vn 0.000000 0.000000 -1.000000
vn 0.000000 -0.015020 0.999887
vn 0.000000 -0.015020 0.999887
vn 0.000000 -0.015020 0.999887
vn 0.000000 -0.015020 0.999887
vn -0.015020 0.000000 0.999887
vn -0.015020 0.000000 0.999887
vn -0.015020 0.000000 0.999887
vn -0.015020 0.000000 0.999887
vn 0.015020 0.000000 0.999887
vn 0.015020 0.000000 0.999887
vn 0.015020 0.000000 0.999887
vn 0.015020 0.000000 0.999887
vn 0.000000 0.015020 0.999887
vn 0.000000 0.015020 0.999887
vn 0.000000 0.015020 0.999887
vn 0.000000 0.015020 0.999887
vn 0.000000 0.000000 1.000000
vn 0.000000 0.000000 1.000000
vn 0.000000 0.000000 1.000000
vn 0.000000 0.000000 1.000000
vn 0.000000 1.000000 0.000000
vn 0.000000 1.000000 0.000000
vn 0.000000 1.000000 0.000000
vn 0.000000 1.000000 0.000000
vn 0.000000 -1.000000 0.000000
vn 0.000000 -1.000000 0.000000
vn 0.000000 -1.000000 0.000000
vn 0.000000 -1.000000 0.000000
vn 1.000000 0.000000 0.000000
vn 1.000000 0.000000 0.000000
vn 1.000000 0.000000 0.000000
vn 1.000000 0.000000 0.000000
vn -1.000000 0.000000 0.000000
vn -1.000000 0.000000 0.000000
vn -1.000000 0.000000 0.000000
vn -1.000000 0.000000 0.000000
vn 0.000000 1.000000 0.000000
vn 0.000000 1.000000 0.000000
vn 0.000000 1.000000 0.000000
vn 0.000000 1.000000 0.000000
vn -1.000000 0.000000 0.000000
vn -1.000000 0.000000 0.000000
vn -1.000000 0.000000 0.000000
vn -1.000000 0.000000 0.000000
vn 0.000000 -1.000000 0.000000
vn 0.000000 -1.000000 0.000000
vn 0.000000 -1.000000 0.000000
vn 0.000000 -1.000000 0.000000
vn 1.000000 0.000000 0.000000
vn 1.000000 0.000000 0.000000
vn 1.000000 0.000000 0.000000
vn 1.000000 0.000000 0.000000
s off
g cuadro1 colgados Muebles
usemtl initialShadingGroup
f 1/11/1 2/1/2 4/12/3 3/2/4
f 5/4/5 6/3/6 8/15/7 7/8/8
f 6/3/9 5/4/10 9/6/11 10/5/12
f 7/8/13 8/15/14 12/7/15 11/9/16
f 10/5/17 9/6/18 11/9/19 12/7/20
f 14/21/21 13/22/22 15/23/23 16/24/24
f 10/5/25 12/10/26 2/1/27 1/11/28
f 3/2/29 4/12/30 8/13/31 6/14/32
f 8/15/33 4/16/34 2/17/35 12/7/36
f 3/18/37 6/3/38 10/19/39 1/20/40
f 5/4/41 7/8/42 13/22/43 14/21/44
f 7/8/45 11/9/46 15/23/47 13/22/48
f 11/9/49 9/6/50 16/24/51 15/23/52
f 9/6/53 5/4/54 14/21/55 16/24/56
